<svg xmlns="http://www.w3.org/2000/svg" width="400" height="500" viewBox="0 0 400 500" role="img" aria-label="Operone sample — platformer ruins">
  <defs>
    <linearGradient id="bg" x1="0%" y1="0%" x2="100%" y2="100%">
      <stop offset="0%" stop-color="#1e1b4b"/>
      <stop offset="48%" stop-color="#be185d"/>
      <stop offset="100%" stop-color="#0ea5e9"/>
    </linearGradient>
    <filter id="glow" x="-20%" y="-20%" width="140%" height="140%">
      <feGaussianBlur stdDeviation="5" result="b"/>
      <feMerge><feMergeNode in="b"/><feMergeNode in="SourceGraphic"/></feMerge>
    </filter>
  </defs>
  <rect width="400" height="500" fill="url(#bg)"/>
  <rect x="36" y="372" width="108" height="16" rx="5" fill="#f472b6" opacity="0.88"/>
  <rect x="176" y="312" width="96" height="14" rx="5" fill="#22d3ee" opacity="0.92"/>
  <rect x="296" y="252" width="72" height="12" rx="4" fill="#f472b6" opacity="0.82"/>
  <rect x="96" y="212" width="64" height="12" rx="4" fill="#22d3ee" opacity="0.78"/>
  <polygon points="318,392 340,348 362,392" fill="#fde047" opacity="0.95" filter="url(#glow)"/>
  <circle cx="200" cy="168" r="15" fill="#fef08a" filter="url(#glow)"/>
  <path d="M186 188 Q200 232 214 188" stroke="#fef08a" stroke-width="3" fill="none" opacity="0.85"/>
  <rect x="0" y="432" width="400" height="68" fill="#0f172a" opacity="0.42"/>
  <path d="M168 162 L180 138 L192 162 L204 138 L216 162" stroke="#67e8f9" stroke-width="2" fill="none" opacity="0.75"/>
  <text x="200" y="472" text-anchor="middle" fill="rgba(255,255,255,0.55)" font-family="system-ui,sans-serif" font-size="11" letter-spacing="3">OPERONE</text>
</svg>
