<svg xmlns="http://www.w3.org/2000/svg" width="400" height="500" viewBox="0 0 400 500" role="img" aria-label="Operone sample — epic tower defense">
  <defs>
    <linearGradient id="bg" x1="0%" y1="0%" x2="0%" y2="100%">
      <stop offset="0%" stop-color="#1e1b4b"/>
      <stop offset="55%" stop-color="#78350f"/>
      <stop offset="100%" stop-color="#fcd34d"/>
    </linearGradient>
    <filter id="glow" x="-20%" y="-20%" width="140%" height="140%">
      <feGaussianBlur stdDeviation="6" result="b"/>
      <feMerge><feMergeNode in="b"/><feMergeNode in="SourceGraphic"/></feMerge>
    </filter>
  </defs>
  <rect width="400" height="500" fill="url(#bg)"/>
  <path d="M0 390 L400 360 L400 500 L0 500 Z" fill="#451a03" opacity="0.55"/>
  <rect x="148" y="210" width="104" height="170" rx="4" fill="#44403c" stroke="#292524" stroke-width="2"/>
  <rect x="162" y="168" width="22" height="48" fill="#78716c"/>
  <rect x="200" y="156" width="22" height="58" fill="#78716c"/>
  <rect x="238" y="172" width="22" height="52" fill="#78716c"/>
  <polygon points="200,118 268,210 132,210" fill="#d6d3d1" stroke="#57534e" stroke-width="2" filter="url(#glow)"/>
  <rect x="172" y="278" width="56" height="72" fill="#a8a29e" rx="4"/>
  <path d="M52 328 L96 286 L96 392 Z" fill="#eab308" opacity="0.95"/>
  <path d="M348 308 L304 268 L304 372 Z" fill="#eab308" opacity="0.95"/>
  <text x="200" y="472" text-anchor="middle" fill="rgba(255,255,255,0.55)" font-family="system-ui,sans-serif" font-size="11" letter-spacing="3">OPERONE</text>
</svg>
